# xmcd
#
# Track frame offsets:
#	3000
#	29250
#	48909
#	68921
#	92496
#	129558
#	154316
#	172263
#	200729
#
# Disc length: 3143 seconds
#
# Revision: 0
# Processed by: cddbd v1.5.2PL0 Copyright (c) Steve Scherf et al.
# Submitted via: EasyCDDAExtractor 15.2.5.1
#
DISCID=7f0c1f09
DTITLE=TAME IMPALA - INNERSPEAKER 2/2
DYEAR=1900
DGENRE=
TTITLE0=SUNDOWN SYNDROME
TTITLE1=REMEMBER ME
TTITLE2=HALF FULL GLASS OF WINE
TTITLE3=WANDER
TTITLE4=WHY WON'T YOU MAKE UP YOUR MIND? [EROL ALKAN REWORK]
TTITLE5=LUCIDITY [PILOOSKI REMIX]
TTITLE6=SOLITUDE IS BLISS [MICKEY MOONLIGHT T.A.M REMIX]
TTITLE7=41 MOJITOS [CANYONS POOLSIDE DUB]
TTITLE8=CANYONS SUNRISE REPRISE
EXTD=
EXTT0=
EXTT1=
EXTT2=
EXTT3=
EXTT4=
EXTT5=
EXTT6=
EXTT7=
EXTT8=
PLAYORDER=
